<svg xmlns="http://www.w3.org/2000/svg" version="1.1" xmlns:xlink="http://www.w3.org/1999/xlink" width="512" height="512" x="0" y="0" viewBox="0 0 283.46 283.46" style="enable-background:new 0 0 512 512" xml:space="preserve" class=""><g><path fill="#cccbca" d="M280.629 235.088c-92.594-56.009-185.196 56.008-277.794 0V48.377c92.599 56.012 185.201-56.013 277.794 0z" opacity="1" data-original="#cccbca"></path><path fill="#de2226" d="M278.339 110.81c-91.089-52.388-182.16 55.107-273.237 2.691V52.025c91.077 52.419 182.148-55.079 273.237-2.691z" opacity="1" data-original="#de2226" class=""></path><path fill="#f2a527" d="M278.339 231.496c-91.089-52.385-182.161 55.114-273.237 2.69v-61.477c91.077 52.416 182.148-55.079 273.237-2.69z" opacity="1" data-original="#f2a527"></path><path fill="#2d459b" d="M278.339 170.027c-91.073-52.4-182.153 55.099-273.229 2.683v-59.197c91.077 52.412 182.156-55.087 273.229-2.687z" opacity="1" data-original="#2d459b"></path></g></svg>
