<svg xmlns="http://www.w3.org/2000/svg" version="1.1" xmlns:xlink="http://www.w3.org/1999/xlink" width="512" height="512" x="0" y="0" viewBox="0 0 283.46 283.46" style="enable-background:new 0 0 512 512" xml:space="preserve" class=""><g><path fill="#cccbca" d="M280.63 235.089c-92.597-56.018-185.195 56.018-277.796 0V48.374c92.601 56.014 185.199-56.014 277.796 0z" opacity="1" data-original="#cccbca"></path><path fill="#42af68" d="M45.576 186.493v61.478c77.59 10.276 155.182-61.133 232.779-16.489v-61.478c-77.598-44.644-155.189 26.765-232.779 16.489z" opacity="1" data-original="#42af68"></path><path fill="#c73c48" d="M278.355 49.315c-91.083-52.402-182.167 55.1-273.246 2.687 0 60.725.004 121.445.004 182.169 13.489 7.759 26.974 12.018 40.462 13.799v-61.485c77.59 10.276 155.182-61.132 232.779-16.489l.001-120.681z" opacity="1" data-original="#c73c48" class=""></path><g fill="#fff"><path d="M45.576 131.502v-5.97a94.656 94.656 0 0 1-1.742-.243v2.989c-.588-.086-1.173-.18-1.761-.274v2.981c-.589-.098-1.173-.2-1.761-.306v2.989a90.806 90.806 0 0 1-1.761-.333v-2.988c-.584-.118-1.173-.239-1.757-.365v-2.98c-.588-.126-1.172-.259-1.761-.396v-2.989c1.173.275 2.346.53 3.519.761v-2.989a109.637 109.637 0 0 1-5.279-1.185v2.989a95.07 95.07 0 0 1-1.761-.459v2.989c-.584-.157-1.173-.318-1.757-.486v2.981c.584.168 1.173.329 1.757.486v2.989c.588.161 1.173.31 1.761.458v2.989c.588.149 1.173.29 1.761.423v2.985c.589.133 1.173.267 1.761.393v2.988c.584.126 1.173.243 1.757.369v2.98c.588.126 1.173.235 1.761.338v-2.989c.588.11 1.172.204 1.761.306v-2.988c.588.094 1.172.188 1.761.274v-2.981c.581.086 1.161.168 1.742.243v-2.989a86.768 86.768 0 0 1-1.742-.243v-2.989c.58.086 1.16.168 1.741.242zM45.576 179.283v-2.98c-.581-.07-1.161-.157-1.742-.243v-2.989c-.588-.086-1.173-.18-1.761-.274v-2.988c-.589-.103-1.173-.196-1.761-.306v-2.981l-1.761-.329v2.98c-.584-.125-1.173-.243-1.757-.368v2.988c-.588-.125-1.172-.259-1.761-.392v2.98c-.588-.125-1.172-.274-1.761-.424v2.981a75.931 75.931 0 0 1-1.761-.455v2.988c-.584-.156-1.173-.321-1.757-.486v2.989c.584.172 1.173.329 1.757.486v2.98c.588.157 1.173.314 1.761.455v2.997c1.761.439 3.518.831 5.279 1.177v-2.981a92.237 92.237 0 0 1-3.519-.769v-2.98c.589.141 1.173.274 1.761.399v-2.988c.584.125 1.173.251 1.757.36v-2.98l1.761.329v2.989c.588.102 1.172.211 1.761.306v2.988c.588.095 1.172.188 1.761.274v2.981c.581.086 1.161.173 1.742.243v-5.97a130.15 130.15 0 0 1-1.742-.243v-2.988a65.74 65.74 0 0 0 1.743.244zM40.39 100.987c.588.106 1.173.204 1.761.302V98.3c-.588-.098-1.173-.196-1.761-.302zM43.834 146.195v2.98c-.588-.086-1.173-.18-1.761-.274v2.989c-.589-.102-1.173-.196-1.761-.306v2.988a47.44 47.44 0 0 1-1.761-.337v2.98c.588.126 1.173.235 1.761.338v2.988c.588.11 1.172.204 1.761.306v2.989c.588.094 1.172.188 1.761.274v2.989c.581.086 1.161.172 1.742.243v-20.906c-.581-.076-1.161-.155-1.742-.241zM6.871 151.552c.588.314 1.173.636 1.761.949v-2.988c.588.313 1.172.611 1.761.91v-2.981c.588.298 1.173.589 1.761.879v-2.981c-.588-.29-1.173-.58-1.761-.878v-2.997a92.144 92.144 0 0 1-1.761-.91v-2.989a189.95 189.95 0 0 1-1.761-.953v-2.981c-.584-.326-1.173-.655-1.757-.992v20.897c.584.337 1.173.667 1.757.996v-2.981zM10.463 87.698c-.584-.294-1.173-.6-1.757-.91v2.981c.584.31 1.173.616 1.757.91v-2.981zM26.231 174.914v-2.98c.588.196 1.173.376 1.761.557v-2.988c.588.18 1.173.36 1.761.525v-2.989c.584.173 1.173.33 1.757.486v-2.98c.588.157 1.173.313 1.761.455v-2.981l1.761.424v-14.936l-1.761-.424v-2.981c-.588-.156-1.173-.298-1.761-.463v-2.988c-.584-.157-1.173-.314-1.757-.486v-2.989a97.926 97.926 0 0 1-1.761-.526v-2.981c-.588-.176-1.173-.365-1.761-.553v-2.989c-.588-.192-1.173-.389-1.761-.588v2.989c-.584-.204-1.173-.412-1.757-.624v2.981a81.846 81.846 0 0 1-1.761-.659v2.989a85.579 85.579 0 0 1-1.761-.694v2.985c-.584-.235-1.173-.471-1.757-.722v2.981a92.286 92.286 0 0 1-1.761-.77v14.936c.589.267 1.173.518 1.761.769v2.98c.584.252 1.173.486 1.757.723v2.996c.588.235 1.173.471 1.761.69v2.989c.588.227 1.172.446 1.761.658v2.981c.584.212 1.172.415 1.757.619v2.997c.588.197 1.173.393 1.761.581zm5.279-22.318c.588.165 1.173.306 1.761.463v2.98c-.588-.156-1.173-.298-1.761-.463v-2.98zm-12.32-1.153c-.584-.235-1.173-.471-1.757-.722v-2.981c.584.252 1.173.487 1.757.723zm7.041 17.509a152.04 152.04 0 0 1-1.761-.596v-2.981c.588.196 1.173.393 1.761.581zm-1.761-33.445c.588.2 1.173.396 1.761.588v2.984c-.588-.188-1.173-.384-1.761-.58v-2.992zm-1.757 23.271v2.98a81.846 81.846 0 0 1-1.761-.659v-5.969c.588.227 1.172.446 1.761.658V152.8c.584.212 1.172.416 1.757.619v-2.98c-.584-.204-1.173-.408-1.757-.62v-2.988a81.846 81.846 0 0 1-1.761-.659v-5.969c.588.228 1.172.447 1.761.659v2.98c.584.212 1.172.416 1.757.62v2.996c.588.196 1.173.393 1.761.581v-2.981c.588.188 1.173.377 1.761.55v-2.981c.588.181 1.173.361 1.761.525v5.97c-.588-.172-1.173-.345-1.761-.525v2.989a74.29 74.29 0 0 1-1.761-.55v2.981c.588.188 1.173.376 1.761.549v2.989c.588.18 1.173.353 1.761.525v5.978c-.588-.173-1.173-.346-1.761-.525v-2.989a74.253 74.253 0 0 1-1.761-.549v-2.997c-.588-.188-1.173-.384-1.761-.58v2.98c-.585-.205-1.173-.408-1.757-.62zM6.871 127.655c.588.322 1.173.639 1.761.953v2.989c.588.31 1.172.616 1.761.914v2.989c.588.298 1.173.592 1.761.878v-2.989c.584.286 1.173.565 1.757.835v-2.989c.588.274 1.173.542 1.761.804v-2.981c.589.259 1.173.518 1.761.765v-2.989c.584.247 1.173.49 1.757.726v-2.989a80.23 80.23 0 0 0 1.761.694v-2.989a85.579 85.579 0 0 1-1.761-.694v-2.981c-.584-.235-1.173-.479-1.757-.726v-2.989a112.05 112.05 0 0 1-5.279-2.404v2.989c1.173.573 2.346 1.118 3.518 1.64v2.981c-.588-.263-1.172-.53-1.761-.804v2.989a93.11 93.11 0 0 1-1.757-.835v2.989a131.11 131.11 0 0 1-1.761-.878v-2.989a123.2 123.2 0 0 1-1.761-.914v-2.989a189.95 189.95 0 0 1-1.761-.953v-2.981c-.584-.326-1.173-.655-1.757-.992v5.97c.584.337 1.173.667 1.757.992v2.989c-.584-.326-1.173-.655-1.757-.992v2.989c.584.337 1.173.667 1.757.992zM36.872 85.102v-2.981c.588.129 1.173.247 1.761.365v-2.989c.584.118 1.172.228 1.757.333v-2.989c-.584-.106-1.172-.22-1.757-.333v-2.989c-.588-.118-1.173-.235-1.761-.365v-2.981a92.626 92.626 0 0 1-1.761-.392v2.981c-.584-.138-1.172-.279-1.757-.424v2.989a97.001 97.001 0 0 1-1.761-.455v2.989c.588.157 1.173.31 1.761.455v2.989c.585.145 1.173.287 1.757.424v2.981c.588.137 1.173.267 1.761.392zm-1.84-6.28v-2.989c.589.137 1.173.271 1.761.396v2.989a87.132 87.132 0 0 1-1.761-.396zM40.312 67.97v2.988c.588.106 1.172.208 1.761.306v2.981c.588.094 1.172.188 1.761.274v2.989c.581.086 1.161.169 1.742.243v-5.969a94.656 94.656 0 0 1-1.742-.243V68.55c.581.086 1.161.169 1.742.243v-2.988c-2.342-.31-4.679-.694-7.021-1.157v2.989c.584.117 1.173.226 1.757.333zM6.871 61.957c.588.322 1.173.639 1.761.953v-2.981c.588.31 1.172.616 1.761.914v-2.989c.588.298 1.173.592 1.761.878v-2.989a117.894 117.894 0 0 1-7.041-3.738v2.989c.584.337 1.173.667 1.757.992v2.989c-.584-.325-1.173-.655-1.757-.992v5.97c.584.337 1.173.667 1.757.992l.001-2.988z" fill="#ffffff" opacity="1" data-original="#ffffff"></path><path d="M6.871 103.768c.588.322 1.173.639 1.761.953v-2.989c.588.31 1.172.616 1.761.914v-2.981c.588.298 1.173.592 1.761.878v-2.989c.584.287 1.173.565 1.757.835V95.4c.588.274 1.173.542 1.761.804v2.989c.589.259 1.173.518 1.761.765v2.989c.584.247 1.173.49 1.757.726v2.981a80.23 80.23 0 0 0 1.761.694v2.989c.588.228 1.172.447 1.761.659v2.988c.584.212 1.172.42 1.757.624v2.981c.588.2 1.173.396 1.761.588v-2.981c.588.188 1.173.376 1.761.553v-2.989c.588.181 1.173.357 1.761.526v-2.989c.584.168 1.173.329 1.757.486v-2.989c.588.161 1.173.31 1.761.459v-2.981c.588.145 1.173.29 1.761.423v-2.989c.589.138 1.173.271 1.761.396v2.988c.584.126 1.173.247 1.757.365v2.98c.588.118 1.173.228 1.761.333v2.989c.588.106 1.172.208 1.761.306v2.989c.588.094 1.172.188 1.761.274v2.989c.581.086 1.161.169 1.742.243v-5.978a94.656 94.656 0 0 1-1.742-.243v-2.989c.581.086 1.161.169 1.742.243v-8.958a86.768 86.768 0 0 1-1.742-.243v2.989c-.588-.086-1.173-.18-1.761-.274v2.989c-.589-.098-1.173-.2-1.761-.306V103.8a90.443 90.443 0 0 1-1.757-.334v-2.988c-.588-.118-1.177-.239-1.765-.365v-2.98c.588.125 1.177.247 1.765.365v-2.989c.584.117 1.173.228 1.757.333v-2.98c.588.105 1.172.208 1.761.306v2.981c.588.094 1.172.188 1.761.274v2.989c.581.086 1.161.169 1.742.243v-8.958a86.768 86.768 0 0 1-1.742-.243v-2.989c.581.086 1.161.169 1.742.243v-5.97a86.768 86.768 0 0 1-1.742-.243v2.989c-.588-.086-1.173-.18-1.761-.274v2.981c-.589-.098-1.173-.2-1.761-.306v2.988a83.46 83.46 0 0 1-1.757-.333v2.989c-.588-.118-1.177-.239-1.765-.365v2.98a94.138 94.138 0 0 1-1.757-.396v-2.981c-.588-.133-1.172-.278-1.761-.423v-2.989a95.07 95.07 0 0 1-1.761-.459v-2.989c-.584-.157-1.173-.318-1.757-.486V80.44c-.588-.169-1.173-.345-1.761-.525v-2.989a69.747 69.747 0 0 1-1.757-.553v-2.989c.584.192 1.173.376 1.757.553v-2.989c.588.181 1.173.357 1.761.526v-2.981c.584.168 1.173.33 1.757.486V65.99c.588.161 1.173.31 1.761.459V63.46a107.631 107.631 0 0 1-7.041-2.024v5.978c-.588-.192-1.173-.388-1.761-.588v-5.978a107.389 107.389 0 0 1-7.037-2.703v2.989c.584.247 1.173.49 1.757.726v2.989c.588.239 1.173.47 1.761.694v2.981c.588.228 1.172.447 1.761.659v2.989a193.5 193.5 0 0 0 1.757.624v2.989c-.584-.204-1.173-.412-1.757-.624v2.981a81.846 81.846 0 0 1-1.761-.659v2.989a85.579 85.579 0 0 1-1.761-.694v2.989c-.584-.235-1.173-.479-1.757-.726v2.989c-.588-.247-1.172-.506-1.761-.765v2.981c-.584-.263-1.172-.53-1.757-.8v-2.981a117.08 117.08 0 0 1-1.761-.839v-2.989a131.11 131.11 0 0 1-1.761-.878V75.77a123.2 123.2 0 0 1-1.761-.914v-2.989c-.588-.313-1.173-.631-1.761-.953v-2.981c-.584-.326-1.173-.655-1.757-.992v5.97c.584.337 1.173.667 1.757.992v2.989c-.584-.325-1.173-.655-1.757-.992v8.958c.584.337 1.173.667 1.757.992v-2.989c.588.322 1.173.64 1.761.953v-2.981c.588.31 1.172.616 1.761.914v2.981c.588.298 1.173.592 1.761.878v2.989c.588.286 1.173.565 1.761.839v2.981a117.08 117.08 0 0 1-1.761-.839v2.989a131.11 131.11 0 0 1-1.761-.878v2.989a123.2 123.2 0 0 1-1.761-.914v-2.989a189.95 189.95 0 0 1-1.761-.953v-2.989c-.584-.326-1.173-.655-1.757-.992v8.958c.584.337 1.173.667 1.757.992v2.989c-.584-.326-1.173-.655-1.757-.992v5.978c.584.337 1.173.667 1.757.992.002-.995.002-1.991.002-2.988zm19.364-9.476c.584.192 1.173.376 1.757.553v-2.988c.588.18 1.173.356 1.761.525v-2.981c.584.168 1.173.33 1.757.486v2.981c.588.161 1.173.31 1.761.459v2.989c.588.145 1.173.29 1.761.423v2.981c-.588-.133-1.172-.278-1.761-.423v2.989a95.07 95.07 0 0 1-1.761-.459v2.989c-.584-.157-1.173-.318-1.757-.486v-2.989a97.926 97.926 0 0 1-1.761-.526v-2.989a74.106 74.106 0 0 1-1.757-.553v-2.981zm-.004 14.928c-.588-.192-1.173-.388-1.761-.588v-5.97c.588.2 1.173.396 1.761.588zM24.47 81.756c.588.2 1.173.396 1.761.588v5.97c-.588-.192-1.173-.389-1.761-.588v-5.97zm-8.798 8.48c.589.259 1.173.518 1.761.765v-2.989c.584.247 1.173.49 1.757.726v-2.981a80.23 80.23 0 0 0 1.761.694v2.981c.588.228 1.172.447 1.761.659v2.989c.584.212 1.172.419 1.757.624v2.981c-.584-.204-1.173-.412-1.757-.624v2.989a81.846 81.846 0 0 1-1.761-.659v2.989a85.579 85.579 0 0 1-1.761-.694v-2.989c-.584-.235-1.173-.479-1.757-.726v-2.989c-.588-.247-1.172-.506-1.761-.765v-2.981z" fill="#ffffff" opacity="1" data-original="#ffffff"></path><path d="M21.026 92.394c-.588-.224-1.172-.455-1.761-.69v2.981c.588.235 1.172.467 1.761.69v-2.981zM13.985 62.49v2.98c-.588-.271-1.172-.553-1.761-.835v2.988c-.588-.286-1.173-.58-1.761-.878v2.989a131.2 131.2 0 0 0 1.761.879v2.989c.588.282 1.173.564 1.761.835v2.98a80.3 80.3 0 0 0 1.757.8v-2.981c.588.259 1.173.514 1.761.765v-2.989c.588.247 1.173.49 1.761.726v-2.989c-.588-.235-1.173-.479-1.761-.726v-2.989c-.588-.251-1.173-.506-1.761-.765v-2.981a77.702 77.702 0 0 1-1.757-.798zm1.758 9.759a85.319 85.319 0 0 1-1.757-.8v-2.988c.584.274 1.173.541 1.757.8zM31.459 95.79a95.95 95.95 0 0 1-1.757-.49v2.981c.584.168 1.173.333 1.757.49V95.79zM40.241 214.34c.584.103 1.173.204 1.757.298v-2.98c-.584-.094-1.173-.196-1.757-.298z" fill="#ffffff" opacity="1" data-original="#ffffff"></path><path d="M31.51 242.181v-2.989c-.584-.157-1.173-.313-1.757-.486v-2.98a167.87 167.87 0 0 1-1.761-.526v-2.988a78.892 78.892 0 0 1-1.757-.549v-2.997c.584.196 1.173.377 1.757.558v-2.981c.588.181 1.173.353 1.761.525v-2.988c.584.164 1.173.329 1.757.486v-2.989a71.48 71.48 0 0 0 1.765.455v-2.98c.584.156 1.173.298 1.757.423v-2.98c.589.134 1.173.267 1.761.393v2.988c.584.126 1.173.243 1.757.369v2.98l1.761.329v2.989c.588.102 1.172.212 1.761.306v2.989c.588.094 1.172.188 1.761.274v2.98a61.25 61.25 0 0 0 1.742.243v-5.97a115.69 115.69 0 0 1-1.742-.243v-2.988c.581.086 1.161.173 1.742.243v-8.959c-.581-.07-1.161-.156-1.742-.242v2.988c-.588-.086-1.173-.181-1.761-.274v2.988c-.589-.102-1.173-.196-1.761-.306v-2.988a47.454 47.454 0 0 1-1.761-.338v-2.98c-.584-.126-1.173-.243-1.757-.369v-2.98c.584.125 1.173.243 1.757.368v-2.996a47.44 47.44 0 0 0 1.761.337v-2.988c.588.109 1.172.203 1.761.306v2.988c.588.095 1.172.188 1.761.274v2.989c.581.086 1.161.173 1.742.243v-8.959c-.581-.07-1.161-.156-1.742-.242v-2.989c.581.086 1.161.165 1.742.243v-5.97c-.581-.07-1.161-.157-1.742-.243v2.98c-.588-.086-1.173-.18-1.761-.274v2.989c-.589-.095-1.173-.204-1.761-.307v2.989l-1.761-.329v2.98c-.584-.125-1.173-.243-1.757-.368v2.988c-.588-.125-1.172-.259-1.761-.392v-2.997a47.35 47.35 0 0 1-1.761-.424v-2.98a75.931 75.931 0 0 1-1.761-.455v-2.989c-.584-.156-1.173-.321-1.757-.486v-2.988c-.588-.173-1.173-.346-1.761-.525v-2.981c-.588-.181-1.173-.368-1.761-.557v-2.981c-.588-.195-1.173-.392-1.761-.596v2.98c-.584-.204-1.173-.408-1.757-.619v2.988a81.846 81.846 0 0 1-1.761-.659v2.989a85.778 85.778 0 0 1-1.761-.698v2.997c-.584-.236-1.173-.486-1.757-.73v2.981c-.588-.243-1.172-.51-1.761-.761v2.98a88.11 88.11 0 0 1-1.761-.8v-2.989c-.584-.274-1.173-.549-1.757-.839v-2.981c-.588-.282-1.173-.58-1.761-.878v-2.981c-.588-.298-1.173-.611-1.761-.918v-2.988a95.248 95.248 0 0 1-1.761-.957v-2.981c-.584-.329-1.173-.658-1.757-.996v5.978c.584.338 1.173.667 1.757.996v2.981a97.117 97.117 0 0 1-1.757-.988v8.958c.584.338 1.173.667 1.757.988v-2.98c.588.313 1.173.636 1.761.949v-2.989c.588.314 1.172.612 1.761.91v2.997c.588.298 1.173.588 1.761.878v2.981c.588.29 1.173.564 1.761.847v2.981c-.588-.282-1.173-.557-1.761-.848v2.997c-.588-.29-1.173-.581-1.761-.879v2.981c-.588-.299-1.173-.597-1.761-.91v-2.989c-.588-.313-1.173-.635-1.761-.949v-2.996a97.117 97.117 0 0 1-1.757-.988v8.958c.584.338 1.173.667 1.757.988v2.997c-.584-.329-1.173-.659-1.757-.996v5.97c.584.337 1.173.666 1.757.988v-2.981c.588.33 1.173.644 1.761.957v-2.988c.588.306 1.172.62 1.761.918v-2.997c.588.298 1.173.597 1.761.879v-2.981c.588.291 1.173.565 1.761.848v-2.997c.584.275 1.173.542 1.757.801v2.996c.589.251 1.173.518 1.761.761v2.981c.584.243 1.173.494 1.757.729v2.98c.588.243 1.173.471 1.761.698v2.989c.588.228 1.172.447 1.761.659v2.98c.584.212 1.172.424 1.757.628v2.98c-.584-.204-1.173-.407-1.757-.619v2.988a81.846 81.846 0 0 1-1.761-.659v2.981c-.588-.22-1.173-.455-1.761-.69v2.98c-.584-.235-1.173-.471-1.757-.722v2.989a112.18 112.18 0 0 0 7.037 2.706v-5.978c.588.196 1.173.393 1.761.581v5.978a98.588 98.588 0 0 0 7.044 2.023v-2.98a76.575 76.575 0 0 1-1.766-.463zm-5.275-34.414c.584.195 1.173.376 1.757.557v-2.988c.588.18 1.173.36 1.761.525v-2.989c.584.173 1.173.33 1.757.486v2.989c.588.164 1.177.313 1.765.463v2.98a36.14 36.14 0 0 0 1.757.424v2.98a36.41 36.41 0 0 1-1.757-.423v2.996c-.588-.149-1.177-.298-1.765-.463v2.989c-.584-.157-1.173-.314-1.757-.486v-2.989c-.588-.165-1.173-.345-1.761-.525v-2.989c-.584-.18-1.173-.36-1.757-.557v-2.98zm-3.522 1.773v2.989a81.846 81.846 0 0 1-1.761-.659v2.988a80.044 80.044 0 0 1-1.761-.69v-2.996c-.584-.235-1.173-.471-1.757-.722v-2.989c-.588-.243-1.172-.51-1.761-.761v-2.98c.589.251 1.173.518 1.761.761v-2.988c.584.25 1.173.486 1.757.721v-2.98c.588.235 1.173.471 1.761.69v2.988c.588.228 1.172.447 1.761.659v2.989c.584.212 1.172.423 1.757.627v2.981a193.85 193.85 0 0 1-1.757-.628zm3.518 13.163a173.76 173.76 0 0 1-1.761-.596v-5.962c.588.196 1.173.392 1.761.58zm0-20.913c-.588-.188-1.173-.385-1.761-.581v-5.978c.588.204 1.173.4 1.761.597z" fill="#ffffff" opacity="1" data-original="#ffffff"></path><path d="M31.439 209.367a69.007 69.007 0 0 1-1.761-.486v2.981c.588.173 1.173.329 1.761.486v-2.981zM40.241 232.304a64.343 64.343 0 0 1-1.761-.345v-2.981c-.589-.125-1.173-.242-1.761-.368v-2.981a73.978 73.978 0 0 1-1.757-.399v2.98a70.28 70.28 0 0 1-1.761-.423v2.988a72.616 72.616 0 0 1-1.761-.463v2.997c.589.156 1.173.313 1.761.454v2.981c.588.149 1.173.29 1.761.424v2.996c.584.134 1.173.267 1.757.393v-2.989c.588.126 1.172.243 1.761.369v-2.98c.588.109 1.172.227 1.761.329v-2.982zm-3.522 2.283a74.006 74.006 0 0 1-1.757-.4v-2.98c.584.133 1.173.267 1.757.392zM10.314 201.004c-.588-.298-1.173-.611-1.761-.925v2.996c.588.313 1.173.612 1.761.91v-2.981zM13.833 217.902v2.981c-.588-.267-1.173-.55-1.761-.832v2.981a99.216 99.216 0 0 1-1.757-.879v2.996c.584.299 1.173.589 1.757.879v2.981c.588.282 1.173.564 1.761.831v2.997l1.761.8v-2.988c.584.258 1.173.518 1.757.761v-2.981c.588.251 1.172.502 1.761.737v-2.996a83.71 83.71 0 0 1-1.761-.722v-2.997a83.237 83.237 0 0 1-1.757-.761v-2.98a58.692 58.692 0 0 1-1.761-.808zm1.839 6.715v2.981a88.169 88.169 0 0 1-1.761-.801v-2.988c.589.274 1.173.541 1.761.808zM43.834 244.738v-2.988c.581.086 1.161.173 1.742.243v-5.97a130.15 130.15 0 0 1-1.742-.243v2.988c-.588-.086-1.173-.18-1.761-.274v2.981c-.589-.103-1.173-.196-1.761-.306v2.988a45.477 45.477 0 0 1-1.761-.338v2.997c2.342.455 4.683.848 7.025 1.153v-2.989c-.581-.077-1.161-.155-1.742-.242zM19.245 208.269c.588.235 1.173.463 1.761.69v-2.981c-.588-.228-1.173-.455-1.761-.69zM10.393 234.046v-2.997a92.144 92.144 0 0 1-1.761-.91v-2.98a95.248 95.248 0 0 1-1.761-.957v-2.981c-.584-.329-1.173-.658-1.757-.996v5.97c.584.338 1.173.667 1.757.988v2.997c-.584-.33-1.173-.659-1.757-.996v2.988a116.931 116.931 0 0 0 7.041 3.734v-2.981c-.59-.291-1.174-.581-1.762-.879zM6.871 172.451c.588.313 1.173.636 1.761.949v-2.981c.588.307 1.172.62 1.761.918v-2.996c.588.298 1.173.596 1.761.878v2.997c.584.282 1.173.564 1.757.831v2.981c.588.274 1.173.541 1.761.8v2.997a101.848 101.848 0 0 1-3.518-1.647v2.996a119.56 119.56 0 0 0 5.279 2.4v-2.988c.584.243 1.173.494 1.757.729v-2.997c.588.244 1.173.471 1.761.698v-2.98a85.778 85.778 0 0 1-1.761-.698v-2.98c-.584-.236-1.173-.486-1.757-.73v-2.988a86.299 86.299 0 0 1-1.761-.769v-2.981a88.11 88.11 0 0 1-1.761-.8v-2.989c-.584-.274-1.173-.549-1.757-.839v-2.981c-.588-.29-1.173-.58-1.761-.878v2.98a98.219 98.219 0 0 1-1.761-.909v2.988c-.588-.313-1.173-.636-1.761-.949v2.98c-.584-.329-1.173-.658-1.757-.996v2.989c.584.337 1.173.667 1.757.988v2.997c-.584-.33-1.173-.659-1.757-.997v5.97c.584.338 1.173.667 1.757.988v-2.981z" fill="#ffffff" opacity="1" data-original="#ffffff"></path></g></g></svg>
