<svg xmlns="http://www.w3.org/2000/svg" version="1.1" xmlns:xlink="http://www.w3.org/1999/xlink" width="512" height="512" x="0" y="0" viewBox="0 0 283.46 283.46" style="enable-background:new 0 0 512 512" xml:space="preserve" class=""><g><path fill="#cccbca" d="M280.63 235.089c-92.597-56.018-185.199 56.018-277.796 0V48.374c92.597 56.014 185.199-56.014 277.796 0z" opacity="1" data-original="#cccbca"></path><path fill="#00b4ce" d="M278.355 231.458C187.28 179.056 96.2 286.542 5.125 234.156V52.006c91.075 52.39 182.155-55.104 273.23-2.695z" opacity="1" data-original="#00b4ce" class=""></path><g fill="#ffc130"><path d="M36.292 186.939c1.891.268 3.24-.117 3.993-1.121 1.506-2.009.165-5.727.149-5.766-.071-.087-7.17-16.388-7.727-17.674-.525-1.122-.855-2.205-.996-3.303-.079-.564.157-1.451.761-1.984.353-.322.989-.651 1.985-.408l.196.047c2.282.675 2.753 2.832 2.753 3.389 0 .863-.439 2.408-2.086 2.032-.949-.212-1.396-.926-1.412-1.515-.008-.415.204-.808.627-.729.016.008.032.008.047.008a.745.745 0 0 1 .447.299c.322.431.235 1.177.235 1.192 0 0 0 .016.008.031.016.016.024.016.04.016.274.016.471-.063.596-.235.212-.282.141-.737.11-.895.635.063.91-.392.917-.408.008-.016.008-.031 0-.039-.235-.353-.769-.667-.91-.745.102-.298.086-.564-.047-.815-.235-.455-.753-.659-.776-.675a.058.058 0 0 0-.039.016c-.008.016-.008.031.008.047.22.267.102.644.055.753a2.575 2.575 0 0 0-.635-.251c-.706-.172-1.365.023-1.765.518-.471.597-.502 1.522-.086 2.589.667 1.726 2 2.291 2.737 2.456.212.047.393.07.518.07-.769.36-.706 1.216-.714 1.231 0 .016.016.023.031.039s.031.008.039-.008c.125-.134.447-.086.627-.039.063.016.134.023.173.039-.737 1.099-.612 1.718-.604 1.757 0 .008.008.024.023.024.016.016.023.016.04.016.549-.251.894-.259 1.09-.22.157.039.243.109.283.141-.408.957-.4 1.898.023 2.777.847 1.78 3.083 2.714 3.099 2.722.023.008.039 0 .047-.008a.049.049 0 0 0 0-.047c-1.663-2.62-1.616-3.687-1.562-4.801.008-.204.023-.416.023-.636 0-.784.338-2.313.636-3.655.251-1.122.486-2.173.486-2.628 0-.533-.424-2.667-2.071-4.189.455-.109.745-.337.745-.666 0-.322-.291-.667-.745-.965 1.647-.848 2.071-2.848 2.071-3.373 0-.455-.235-1.601-.486-2.809-.298-1.459-.636-3.13-.636-3.914 0-.221-.016-.432-.023-.636-.055-1.146-.102-2.204 1.562-4.208a.049.049 0 0 0 0-.047c-.008-.02-.024-.027-.047-.027-.016.012-2.251.094-3.099 1.49-.423.71-.431 1.639-.023 2.769-.04.016-.118.055-.283.023-.196-.047-.541-.204-1.09-.706-.016-.008-.032-.008-.04-.016-.016.008-.023.016-.023.031-.008.016-.133.596.604 2.023-.039-.008-.102-.016-.173-.031-.18-.039-.502-.133-.627-.329-.008-.016-.023-.031-.039-.023-.016-.008-.031.008-.031.023 0 .008-.055.847.714 1.537a6.26 6.26 0 0 0-.518-.141c-.737-.173-2.071-.267-2.737 1.113a2.795 2.795 0 0 0 .086 2.644c.4.698 1.051 1.217 1.765 1.389.212.047.431.063.635.047.047.134.165.55-.055.723-.016.016-.016.031-.008.047s.023.031.039.031c.023 0 .541.031.776-.314.134-.195.149-.471.047-.8.141-.016.674-.094.91-.345.008-.016.008-.031 0-.039a1.733 1.733 0 0 0-.917-.824c.031-.125.102-.549-.11-.934-.125-.228-.322-.393-.596-.51-.016 0-.023 0-.04.008-.008.008-.008.008-.008.023s.094.801-.235 1.083c-.117.109-.282.133-.494.078-.423-.126-.635-.628-.627-1.035.016-.581.463-1.067 1.412-.848 1.647.377 2.086 2.087 2.086 2.95 0 .541-.471 2.541-2.753 2.148-.071 0-.134-.016-.196-.031-.996-.243-1.632-.894-1.985-1.396-.604-.847-.839-1.866-.761-2.385.149-1.02.471-1.93.996-2.784.557-.84 7.656-14.092 7.727-14.3.016-.039 1.357-3.291-.149-5.825-.761-1.279-2.102-2.169-3.993-2.726 1.891.283 3.232-.113 3.993-1.118 1.506-2 .165-5.73.149-5.77-.071-.09-7.17-16.383-7.727-17.666-.525-1.129-.855-2.212-.996-3.302-.079-.573.157-1.456.761-1.989.353-.318.989-.647 1.985-.408.063.016.125.028.196.055 2.282.671 2.753 2.828 2.753 3.381 0 .863-.439 2.404-2.086 2.028-.949-.216-1.396-.918-1.412-1.51-.008-.419.204-.812.627-.733.016.004.032.004.047.008a.78.78 0 0 1 .447.302c.322.435.235 1.177.235 1.185 0 .016 0 .031.008.043.016.012.024.012.04.016.274.016.471-.066.596-.235.212-.286.141-.741.11-.89.635.047.91-.393.917-.412a.049.049 0 0 0 0-.047c-.235-.341-.769-.663-.91-.741a.983.983 0 0 0-.047-.816c-.235-.447-.753-.659-.776-.667-.016-.008-.031-.004-.039.008-.008.016-.008.039.008.051.22.271.102.635.055.741a2.669 2.669 0 0 0-.635-.243c-.706-.168-1.365.027-1.765.514-.471.601-.502 1.518-.086 2.597.667 1.729 2 2.287 2.737 2.456.212.047.393.063.518.074-.769.361-.706 1.212-.714 1.22 0 .016.016.035.031.047.016.004.031.008.039-.008.125-.133.447-.086.627-.043.063.016.134.027.173.035-.737 1.098-.612 1.729-.604 1.757 0 .016.008.024.023.036s.023.004.04 0c.549-.243.894-.247 1.09-.204a.578.578 0 0 1 .283.137c-.408.957-.4 1.887.023 2.777.847 1.78 3.083 2.718 3.099 2.714.023.012.039.008.047-.004a.049.049 0 0 0 0-.047c-1.663-2.616-1.616-3.687-1.562-4.801.008-.204.023-.412.023-.632 0-.784.338-2.31.636-3.663.251-1.114.486-2.169.486-2.616 0-.545-.424-2.675-2.071-4.205.455-.102.745-.325.745-.655s-.291-.67-.745-.961c1.647-.855 2.071-2.852 2.071-3.389 0-.447-.235-1.588-.486-2.796-.298-1.471-.636-3.13-.636-3.915 0-.22-.016-.435-.023-.639-.055-1.145-.102-2.208 1.562-4.205a.049.049 0 0 0 0-.047c-.008-.02-.024-.032-.047-.028-.016.004-2.251.086-3.099 1.491-.423.71-.431 1.632-.023 2.761-.04.023-.118.055-.283.02-.196-.043-.541-.196-1.09-.69-.016-.012-.032-.02-.04-.016-.016.004-.023.012-.023.027-.008.02-.133.596.604 2.024l-.173-.035c-.18-.043-.502-.137-.627-.333-.008-.016-.023-.02-.039-.023-.016.004-.031.016-.031.031 0 .008-.055.835.714 1.542-.125-.043-.306-.106-.518-.153-.737-.168-2.071-.255-2.737 1.122-.416.867-.385 1.8.086 2.644.408.69 1.059 1.216 1.765 1.385.212.051.431.07.635.055.047.13.165.549-.055.718-.016.004-.016.028-.008.043.008.02.023.031.039.023.023.008.541.031.776-.306.134-.192.149-.463.047-.8.141-.016.674-.102.91-.341a.049.049 0 0 0 0-.047 1.726 1.726 0 0 0-.917-.812c.031-.134.102-.557-.11-.945a1.133 1.133 0 0 0-.596-.502.068.068 0 0 0-.04 0c-.008.004-.008.02-.008.035 0 .008.086.788-.235 1.075-.117.114-.282.137-.494.083-.423-.126-.635-.628-.627-1.04.016-.584.463-1.063 1.412-.843 1.647.376 2.086 2.083 2.086 2.945 0 .545-.471 2.546-2.753 2.157a1.387 1.387 0 0 1-.196-.039c-.996-.239-1.632-.898-1.985-1.396-.604-.847-.839-1.863-.761-2.389a7.29 7.29 0 0 1 .996-2.785c.125-.211.604-1.067 1.506-2.698.141-.353.274-.702.416-1.055.008-.004.4-1.33-.29-2.412-.4-.616-1.059-1.043-1.969-1.279l-.023-.004c-.212-.055-1.326-.31-2.173.184-.847-.973-1.953-1.345-2.165-1.412-.008-.004-.016-.008-.023-.008-.91-.278-1.577-.227-1.969.161-.69.69-.298 2.24-.298 2.255.141.423.274.843.416 1.267 0 .004.008.012.008.012.895 2.146 1.373 3.275 1.506 3.557.518 1.157.847 2.251.996 3.35.079.569-.165 1.448-.761 1.958-.361.298-.997.596-1.985.271-.07-.023-.133-.043-.196-.071-2.291-.91-2.761-3.185-2.761-3.726 0-.867.439-2.318 2.086-1.757.957.321 1.396 1.047 1.412 1.643.016.42-.212.796-.62.683l-.047-.012a.863.863 0 0 1-.455-.349c-.322-.471-.235-1.2-.227-1.208 0-.016-.008-.031-.016-.043s-.023-.016-.023-.016c-.282-.047-.479.008-.604.165-.212.263-.149.722-.118.875-.627-.122-.902.271-.918.29-.008.012 0 .032.008.051.235.373.761.761.91.859a1.04 1.04 0 0 0 .039.824c.235.471.753.741.777.749.016.012.031.012.039 0 .016-.012.008-.039 0-.047-.22-.294-.102-.647-.063-.753.212.134.423.235.643.31.706.231 1.365.079 1.757-.388.471-.573.502-1.491.094-2.589a4.416 4.416 0 0 0-2.737-2.679c-.212-.071-.393-.11-.526-.142.769-.267.714-1.129.714-1.137 0-.016-.008-.031-.023-.047-.016-.004-.031-.008-.047 0-.125.122-.447.039-.627-.024-.063-.023-.125-.047-.172-.063.737-1.008.612-1.655.612-1.679-.008-.02-.016-.027-.031-.043-.008 0-.024-.008-.032 0-.549.18-.894.137-1.09.066a.642.642 0 0 1-.283-.177c.408-.902.4-1.828-.023-2.781-.847-1.882-3.083-3.248-3.106-3.263-.016-.016-.032-.012-.04 0s-.008.027 0 .047c1.663 2.954 1.608 3.985 1.554 5.099-.008.2-.016.408-.016.627 0 .785-.337 2.251-.643 3.546-.243 1.071-.479 2.075-.479 2.522 0 .542.424 2.781 2.071 4.578-.455.031-.753.208-.753.529 0 .329.298.726.753 1.086-1.647.588-2.071 2.475-2.071 3.016 0 .447.235 1.64.479 2.891.306 1.53.643 3.248.643 4.032 0 .22.008.436.016.644.055 1.145.109 2.247-1.554 3.906-.008.012-.008.027 0 .047s.024.032.04.032c.023.016 2.259.361 3.106-.941.423-.647.431-1.573.023-2.757.031-.023.118-.039.283.02.196.071.541.271 1.09.828.008.008.024.023.032.016 0 0 .023-.008.031-.02 0-.023.125-.584-.612-2.103.047.02.11.04.172.063.181.063.502.196.627.4.016.024.032.028.047.032.016 0 .023-.016.023-.032 0-.008.055-.824-.714-1.624.133.063.314.149.526.22.737.255 2.079.451 2.737-.898.408-.847.377-1.781-.094-2.651-.393-.71-1.051-1.279-1.757-1.51a2.23 2.23 0 0 0-.643-.122c-.047-.129-.165-.564.063-.706.008-.008.016-.027 0-.047-.008-.02-.023-.035-.039-.031-.023-.008-.542-.086-.777.224-.125.176-.141.443-.039.792-.149-.004-.674.016-.91.224-.008.012-.016.023-.008.043.016.027.291.624.918.934-.031.129-.094.549.118.961.125.235.322.432.596.569 0 0 .023.008.031.004s.016-.02.016-.035c-.008-.008-.095-.8.227-1.051.125-.098.291-.106.502-.031.416.161.635.678.62 1.09-.016.581-.455 1.031-1.412.71-1.647-.561-2.086-2.357-2.086-3.216 0-.557.47-2.44 2.761-1.813.063.012.126.032.196.055.98.326 1.624 1.016 1.985 1.534.596.871.839 1.895.761 2.42a7.092 7.092 0 0 1-.996 2.738c-.557.977-7.656 13.222-7.735 13.265-.008.027-1.357 2.981.149 5.848.761 1.443 2.11 2.612 3.993 3.405-1.883-.518-3.232-.4-3.993.439-1.506 1.667-.157 5.695-.141 5.742.071.259 7.17 17.563 7.727 18.701.518 1.153.847 2.243.996 3.357.079.564-.165 1.436-.761 1.945-.361.306-.997.597-1.985.267a1.45 1.45 0 0 1-.196-.063c-2.291-.91-2.761-3.185-2.761-3.734 0-.862.439-2.313 2.086-1.757.957.329 1.396 1.059 1.412 1.655.016.416-.212.792-.62.675a.89.89 0 0 1-.502-.354c-.322-.479-.235-1.208-.227-1.216 0-.016-.008-.023-.016-.039-.008-.008-.023-.016-.023-.016-.282-.047-.479.016-.604.173-.212.251-.149.722-.118.862-.627-.125-.902.282-.918.299-.008 0 0 .023.008.047.235.376.761.753.91.862-.102.267-.086.55.039.816.235.479.753.737.777.753.016.008.031.008.039 0 .016-.016.008-.031 0-.047-.22-.299-.102-.651-.063-.754.212.126.423.236.643.307.706.228 1.365.086 1.757-.385.471-.58.502-1.49.094-2.589-.667-1.757-2-2.416-2.737-2.675a6.08 6.08 0 0 0-.526-.148c.769-.26.714-1.129.714-1.137a.043.043 0 0 0-.023-.039c-.016-.013-.031-.009-.047 0-.125.125-.447.039-.627-.024-.063-.023-.125-.051-.172-.07.737-1.008.612-1.655.612-1.679-.008-.02-.016-.027-.031-.043a.08.08 0 0 1-.024-.008c-.557.196-.902.153-1.098.082-.165-.059-.251-.145-.283-.176.408-.902.4-1.835-.023-2.789-.847-1.875-3.083-3.24-3.106-3.264-.016-.008-.032-.012-.04 0s-.008.028 0 .047c1.663 2.961 1.608 3.993 1.554 5.099-.008.2-.016.408-.016.627 0 .784-.337 2.259-.643 3.545-.243 1.067-.479 2.071-.479 2.526 0 .533.424 2.784 2.071 4.573-.455.031-.753.212-.753.525 0 .33.298.737.753 1.099-1.647.58-2.071 2.479-2.071 3.012 0 .439.235 1.632.479 2.896.306 1.521.643 3.239.643 4.023 0 .22.008.439.016.644.055 1.146.109 2.243-1.554 3.914-.008.008-.008.024 0 .048a.174.174 0 0 0 .04.031c.023.008 2.259.353 3.106-.949.423-.644.431-1.569.023-2.762.031-.016.118-.031.283.023.196.07.541.274 1.09.84.008 0 .024.016.032 0 0 0 .023 0 .031-.008 0-.031.125-.589-.612-2.103.047.008.11.031.172.055.181.063.502.196.627.4.016.023.032.039.047.031.016 0 .023-.008.023-.023s.055-.832-.714-1.632c.133.07.314.149.526.22.737.251 2.079.455 2.737-.895.408-.847.377-1.788-.094-2.651-.393-.714-1.051-1.286-1.757-1.514a2.714 2.714 0 0 0-.643-.118c-.047-.125-.165-.564.063-.706.008-.016.016-.023 0-.047-.008-.016-.023-.031-.039-.031-.023-.016-.542-.094-.777.228-.125.181-.141.432-.039.784-.149.008-.674.016-.91.228-.008.008-.016.016-.008.039.016.024.291.636.918.934-.031.126-.094.55.118.957a1.286 1.286 0 0 0 .619.581c.016-.008.024-.023.024-.031-.008-.008-.095-.809.227-1.06.125-.102.291-.102.502-.023.416.157.635.675.62 1.083-.016.58-.455 1.035-1.412.722-1.647-.565-2.086-2.369-2.086-3.232 0-.549.47-2.432 2.761-1.804l.196.047c.98.329 1.624 1.02 1.985 1.537.596.879.839 1.898.761 2.416a7.012 7.012 0 0 1-.996 2.746c-.557.973-7.656 13.226-7.735 13.257-.008.039-1.357 2.981.149 5.86.761 1.436 2.11 2.597 3.993 3.404-1.883-.525-3.232-.408-3.993.439-1.506 1.671-.157 5.688-.141 5.734.071.259 7.17 17.563 7.727 18.701.518 1.153.847 2.244.996 3.357.079.564-.165 1.443-.761 1.953-.361.299-.997.597-1.985.275a2.595 2.595 0 0 0-.196-.079c-2.291-.91-2.761-3.185-2.761-3.718 0-.871.439-2.33 2.086-1.773.957.33 1.396 1.06 1.412 1.663.016.408-.212.784-.62.675a.105.105 0 0 1-.047-.016.91.91 0 0 1-.455-.346c-.322-.471-.235-1.2-.227-1.216 0-.008-.008-.023-.016-.039-.008-.008-.023-.016-.023-.016-.282-.047-.479.016-.604.173-.212.259-.149.722-.118.871-.627-.134-.902.274-.918.29-.008.016 0 .031.008.047.235.376.761.753.91.862-.102.283-.086.565.039.824.235.471.753.745.777.761.016-.008.031-.008.039-.016.016-.016.008-.031 0-.047-.22-.29-.102-.651-.063-.753.212.125.423.235.643.313.706.235 1.365.078 1.757-.393.471-.564.502-1.49.094-2.589-.667-1.757-2-2.416-2.737-2.675-.212-.07-.393-.109-.526-.141.769-.267.714-1.13.714-1.138 0-.023-.008-.031-.023-.047-.016 0-.031-.008-.047 0-.125.125-.447.039-.627-.023-.063-.023-.125-.039-.172-.071.737-1.004.612-1.647.612-1.679a1.507 1.507 0 0 0-.016-.031c-.023-.016-.04-.016-.047-.016-.549.188-.894.149-1.09.078a.687.687 0 0 1-.283-.18c.408-.902.4-1.828-.023-2.777-.847-1.883-3.083-3.248-3.106-3.271-.016-.008-.032 0-.032 0-.016.016-.016.032-.008.048 1.663 2.965 1.608 3.992 1.554 5.106a15.27 15.27 0 0 0-.016.628c0 .784-.337 2.251-.643 3.546-.243 1.074-.479 2.078-.479 2.518 0 .533.424 2.785 2.071 4.573-.455.039-.753.212-.753.541 0 .314.298.722.753 1.083-1.647.58-2.071 2.479-2.071 3.012 0 .455.235 1.647.479 2.896.306 1.529.643 3.247.643 4.032 0 .219.008.431.016.643.055 1.146.109 2.236-1.554 3.915-.008 0-.008.016 0 .039s.024.023.04.031c.023.016 2.259.353 3.106-.941.423-.651.431-1.577.023-2.77.031-.016.118-.031.283.024.196.07.541.274 1.09.839 0 0 .024.016.032.016l.031-.023c0-.023.125-.589-.612-2.103.047.023.11.031.172.055.181.063.502.196.627.408.016.016.032.031.047.023.016.008.023-.008.023-.023 0-.008.055-.831-.714-1.624.133.063.314.142.526.212.737.251 2.079.455 2.737-.895.408-.847.377-1.772-.094-2.651-.393-.714-1.051-1.271-1.757-1.506a1.89 1.89 0 0 0-.643-.109c-.047-.142-.165-.581.063-.722.008-.016.016-.023 0-.048-.008-.016-.023-.031-.039-.031-.023 0-.542-.094-.777.228-.125.181-.141.447-.039.793-.149 0-.674.008-.91.219-.008.016-.016.031-.008.048.016.016.291.627.918.933-.031.134-.094.55.118.949.125.252.322.439.596.581 0 0 .023.008.031 0 .008 0 .016-.016.016-.031 0 0-.095-.8.227-1.06.11-.086.267-.102.455-.039.016.008.031.016.047.016.416.157.635.69.62 1.083-.016.58-.455 1.051-1.412.722-1.647-.557-2.086-2.361-2.086-3.217 0-.564.47-2.447 2.761-1.819.063.016.126.031.196.063.98.321 1.624 1.004 1.985 1.529.596.871.839 1.891.761 2.409a7.002 7.002 0 0 1-.996 2.745c-.133.204-.627 1.059-1.506 2.604 0 0-.016 0-.008.016-.141.329-.274.659-.416.988 0 .016-.393 1.303.298 2.447.392.651 1.059 1.13 1.969 1.412.008 0 .016 0 .023.008.212.07 1.318.361 2.165-.141.855.98 1.961 1.31 2.173 1.372h.023c.91.235 1.577.134 1.969-.298.69-.753.298-2.251.29-2.274-.141-.416-.274-.832-.416-1.248a684.398 684.398 0 0 0-1.506-3.459c-.525-1.122-.855-2.204-.996-3.303-.079-.564.157-1.451.761-1.984.353-.313.989-.644 1.985-.408.063.016.125.031.196.063 2.282.667 2.753 2.824 2.753 3.374 0 .862-.439 2.416-2.086 2.039-.949-.22-1.396-.934-1.412-1.521-.008-.408.204-.809.627-.729a.746.746 0 0 1 .494.306c.322.439.235 1.177.235 1.177 0 .031 0 .047.008.047.016.016.024.016.04.023.274.008.471-.07.596-.243.212-.282.141-.737.11-.879.635.048.91-.407.917-.415a.051.051 0 0 0 0-.048c-.235-.353-.769-.666-.91-.745a.984.984 0 0 0-.047-.815c-.235-.455-.753-.659-.776-.675a.058.058 0 0 0-.039.016c-.008.016-.008.031.008.055.22.274.102.636.055.745a2.929 2.929 0 0 0-.635-.25c-.706-.165-1.365.023-1.765.518-.471.596-.502 1.521-.086 2.596.667 1.734 2 2.283 2.737 2.448.212.047.393.07.518.086-.769.345-.706 1.208-.714 1.216 0 .016.016.039.031.039.016.016.031.008.039 0 .125-.141.447-.094.627-.047.063.016.134.031.173.039-.737 1.099-.612 1.734-.604 1.758 0 .016.008.023.023.039h.04c.549-.251.894-.259 1.09-.22a.674.674 0 0 1 .283.142c-.408.957-.4 1.898.023 2.784.847 1.773 3.083 2.722 3.099 2.714 0 0 .008.008.016.008 0 0 .023 0 .032-.016.008-.016.008-.031 0-.031-1.663-2.636-1.616-3.702-1.562-4.816.008-.204.023-.408.023-.627 0-.785.338-2.307.636-3.664.251-1.113.486-2.173.486-2.612 0-.549-.424-2.683-2.071-4.204.455-.11.745-.338.745-.659 0-.329-.291-.675-.745-.973 1.647-.848 2.071-2.848 2.071-3.373 0-.455-.235-1.593-.486-2.801-.298-1.467-.636-3.13-.636-3.914 0-.22-.016-.439-.023-.644-.055-1.146-.102-2.204 1.562-4.205.008-.016.008-.031 0-.047s-.024-.023-.047-.031c-.016.016-2.251.094-3.099 1.498-.423.698-.431 1.632-.023 2.762-.04.016-.118.055-.283.023-.196-.047-.541-.204-1.09-.706-.016-.008-.032-.016-.04 0-.016-.008-.023.008-.023.016-.008.031-.133.597.604 2.024-.039 0-.102-.016-.173-.031-.18-.04-.502-.134-.627-.33-.008-.016-.023-.031-.039-.023s-.031.008-.031.031c0 .008-.055.84.714 1.546a3.684 3.684 0 0 0-.518-.157c-.737-.173-2.071-.251-2.737 1.122-.416.854-.385 1.796.086 2.636.4.697 1.051 1.224 1.765 1.389.212.055.431.063.635.047.047.133.165.549-.055.729-.016.008-.016.023-.008.039s.023.031.039.031c.023 0 .541.031.776-.313.134-.188.149-.455.047-.801.141-.016.674-.094.91-.345.008-.008.008-.023 0-.039a1.678 1.678 0 0 0-.917-.809c.031-.141.102-.564-.11-.949-.125-.228-.322-.392-.596-.502-.016-.008-.023-.008-.04 0-.008.008-.008.023-.008.023 0 .016.094.801-.235 1.083-.109.109-.259.141-.447.094-.016 0-.032 0-.047-.008-.423-.133-.635-.635-.627-1.027.016-.596.463-1.083 1.412-.863 1.647.377 2.086 2.087 2.086 2.95 0 .549-.471 2.549-2.753 2.165a6.446 6.446 0 0 1-.196-.047c-.996-.235-1.632-.895-1.985-1.396-.604-.848-.839-1.859-.761-2.385.149-1.02.471-1.93.996-2.785.557-.839 7.656-14.097 7.727-14.301.016-.039 1.357-3.279-.149-5.82-.763-1.291-2.104-2.177-3.994-2.727zm-6.119 37.003c.173.479.722 2.024 1.632 4.079.706 1.569.941 2.746.643 3.154-.094.125-.228.164-.4.125-.023-.016-.055-.016-.079-.031-.635-.235-1.514-1.114-1.773-1.373-.008-.008-.016-.008-.023-.016h-.023c-.251.118-1.138.494-1.773.369a.633.633 0 0 1-.471-.354c-.291-.58-.063-1.623.635-2.801a27.625 27.625 0 0 0 1.632-3.152zm0-4.73c-.181-.432-1.106-2.158-3.859-3.287 2.753.619 3.679-.644 3.859-.949.188.408 1.106 2.196 3.867 3.13-2.761-.424-3.679.784-3.867 1.106zm0-135.742a57.312 57.312 0 0 0-1.632-4.106c-.698-1.592-.934-2.789-.635-3.181.086-.122.228-.153.4-.098.023.008.047.012.071.02.635.271 1.522 1.149 1.773 1.404.016.02.031.028.047.016.259-.114 1.138-.49 1.773-.404a.636.636 0 0 1 .479.345c.298.565.063 1.627-.643 2.82-.911 1.58-1.46 2.8-1.633 3.184zm0 4.731c.188.416 1.106 2.204 3.867 3.134-2.761-.428-3.679.781-3.867 1.102-.181-.428-1.106-2.157-3.859-3.287 2.753.627 3.678-.64 3.859-.949zm2.832 30.311s-.071-.6.267-.898c.204-.177.51-.22.91-.122.447.11.769.357.949.733.259.565.133 1.263-.071 1.522a.049.049 0 0 0 0 .047c.016.02.031.023.047.027.016 0 1.545-.286 1.451-1.683.196.012 1.114.02 1.467-.6a.049.049 0 0 0 0-.047c-.031-.039-.628-.949-1.491-1.122a1.84 1.84 0 0 0-.141-1.247c-.228-.443-.635-.808-1.224-1.075 0 0-.031-.008-.039.004-.008.008 0 .023-.008.039.008.008.369.973.032 1.444-.165.211-.455.294-.871.215 0 0-.094-.027-.243-.066-.572-.133-1.914-.392-2.439.223-.055-1.584-.118-3.165-.173-4.75 0 0-.063-.357.173-.608.267-.251.737-.31 1.436-.173 0 0 .055.004.157.031.275.071.824.243 1.389.636.016.012.031.016.039.004.016-.004.023-.02.016-.027 0-.031-.384-2.479-3.067-3.185-.149-.039-.298-.071-.455-.106.313-.11.941-.455.941-1.436 0-.027.039-1.796-1.859-3.848-.008-.02-.031-.023-.047-.016-1.898.977-1.859 2.773-1.859 2.792 0 .989.628 1.687.949 1.977-.157-.055-.313-.11-.455-.153-2.683-.812-3.067 1.416-3.075 1.443 0 .008.008.028.016.04.008.02.023.02.039.02.573-.071 1.122.067 1.396.153.094.027.157.055.157.055.69.255 1.177.588 1.428.984.243.388.181.706.181.706-.055 1.553-.118 3.103-.173 4.656-.525-.914-1.875-1.42-2.439-1.604-.157-.051-.251-.074-.251-.074-.416-.161-.706-.408-.863-.71-.337-.663.023-1.42.023-1.428.008-.012.008-.027-.008-.043-.008-.016-.023-.024-.039-.028-.581-.063-.996.067-1.216.38-.29.4-.188.981-.141 1.169-.008-.004-.016-.008-.032-.012a1.454 1.454 0 0 0-1.459.282c-.008.012-.008.028-.008.043.361.828 1.271 1.341 1.475 1.443-.094 1.341 1.436 2.495 1.452 2.506.016.004.031.012.039-.004.023-.008.016-.023.008-.043-.212-.377-.337-1.149-.071-1.562.181-.278.495-.345.949-.196.4.129.706.345.902.635.337.49.267 1.04.267 1.04-.313 1.867-1.969 1.545-2.659 1.302-.235-.079-.384-.157-.384-.157-1.177-.572-1.985-1.341-2.393-2.255-.792-1.734.11-3.417.125-3.428a812.041 812.041 0 0 0 8.143-14.646 1667.736 1667.736 0 0 0 8.15 19.271c.008.02.91 2.22.125 3.502-.416.674-1.216.988-2.393.89-.008 0-.157-.012-.384-.063-.699-.148-2.347-.759-2.668-2.799zm-2.832.078c1.177 2.985 3.436 4.205 4.699 4.636-1.263-.142-3.522-.09-4.699 2.212-1.177-2.969-3.428-4.295-4.691-4.871 1.263.287 3.514.341 4.691-1.977zm-2.832 6.845s.071.604-.267.875c-.196.165-.502.184-.902.055-.455-.149-.769-.428-.949-.824-.259-.584-.141-1.271.071-1.506.008-.012.008-.027-.008-.051-.008-.016-.023-.023-.039-.027-.016.008-1.545.106-1.452 1.502-.204-.031-1.114-.176-1.475.385 0 .008 0 .031.008.043.023.039.612 1.036 1.459 1.333a.135.135 0 0 1 .032.012c-.047.157-.149.667.141 1.263.22.479.635.89 1.216 1.22.016.012.031.012.039.004.016-.008.016-.023.008-.043 0 0-.36-1.008-.023-1.436.157-.208.447-.251.863-.146 0 0 .094.04.251.09.564.185 1.914.518 2.439-.09.055 1.585.118 3.173.173 4.758 0 0 .063.357-.181.596-.251.255-.729.294-1.428.114 0 0-.063-.012-.157-.039a4.547 4.547 0 0 1-1.396-.749c-.016-.008-.023-.008-.039-.004-.008.004-.016.016-.016.031.008.02.393 2.561 3.075 3.373a4.8 4.8 0 0 0 .455.114c-.321.102-.949.432-.949 1.412 0 0-.039 1.816 1.859 3.883.016.016.039.02.047.016 1.898-.993 1.859-2.824 1.859-2.836 0-.98-.628-1.663-.941-1.945.157.059.306.105.455.145 2.683.706 3.067-1.616 3.067-1.632.008-.016 0-.031-.016-.043-.008-.012-.023-.016-.039-.02-.565.126-1.114.028-1.389-.039-.102-.027-.157-.047-.157-.047-.698-.216-1.177-.525-1.428-.922-.243-.38-.181-.69-.181-.706.055-1.553.118-3.103.173-4.656.525.906 1.867 1.337 2.439 1.471.149.039.243.051.243.051.416.133.706.341.871.639.337.62-.023 1.412-.032 1.42 0 .016 0 .032.008.047a.112.112 0 0 0 .023.023c.604-.004 1.012-.181 1.239-.529.282-.432.188-1.004.141-1.185.008 0 .016.004.023.004.847.184 1.444-.471 1.467-.499.008-.008.008-.031 0-.039-.353-.769-1.271-1.145-1.467-1.228.094-1.341-1.443-2.31-1.451-2.326-.016-.004-.031-.008-.047.004a.049.049 0 0 0 0 .047c.204.353.33 1.114.071 1.545-.181.298-.502.396-.949.286-.4-.098-.706-.291-.91-.569-.345-.463-.267-1.023-.267-1.023.321-1.867 1.969-1.679 2.667-1.526.228.051.376.11.384.11 1.177.428 1.977 1.055 2.393 1.902.792 1.588-.118 3.428-.125 3.439a952.565 952.565 0 0 1-8.15 15.339 1707.696 1707.696 0 0 1-8.143-19.956c-.016-.027-.918-2.381-.125-3.522.408-.608 1.216-.78 2.393-.537 0 0 .149.031.384.11.693.246 2.348.991 2.662 3.039zm2.832 26.148c.188.416 1.106 2.205 3.867 3.139-2.761-.432-3.679.784-3.867 1.098-.181-.424-1.106-2.157-3.859-3.287 2.753.628 3.678-.635 3.859-.95zm2.832 30.312c0-.008-.071-.596.267-.894.204-.181.51-.22.91-.126.447.11.769.361.949.737.259.565.133 1.256-.071 1.522a.049.049 0 0 0 0 .047c.016.016.031.016.047.016.016.008 1.545-.282 1.451-1.679.196.016 1.114.023 1.467-.597.008-.016.008-.031 0-.039-.023-.039-.62-.941-1.467-1.122h-.023c.04-.164.141-.689-.141-1.255-.228-.439-.635-.8-1.224-1.074 0 0-.031 0-.039.008-.008.016 0 .031-.008.031.008.016.369.988.032 1.443-.165.22-.455.298-.871.22 0 0-.094-.016-.243-.063-.572-.126-1.914-.393-2.439.219-.055-1.584-.118-3.169-.173-4.753 0 0-.063-.346.173-.597.267-.259.737-.313 1.436-.181 0 0 .055.008.157.04.275.07.824.242 1.389.627a.05.05 0 0 0 .039.016c.016-.008.023-.023.016-.039 0-.031-.384-2.479-3.067-3.185a7.582 7.582 0 0 0-.455-.103c.313-.109.941-.455.941-1.443 0-.016.039-1.788-1.859-3.844-.008-.016-.031-.023-.047-.016-1.898.973-1.859 2.777-1.859 2.801 0 .98.628 1.679.949 1.977a8.682 8.682 0 0 0-.455-.165c-2.683-.808-3.067 1.42-3.075 1.444 0 .016.008.039.016.047.008.016.023.016.039.016.573-.063 1.122.078 1.396.156.094.031.157.047.157.047.69.26 1.177.597 1.428.997.243.384.181.698.181.706-.055 1.545-.118 3.099-.173 4.651-.525-.918-1.875-1.412-2.439-1.601-.157-.047-.251-.078-.251-.078-.416-.165-.706-.408-.863-.714-.337-.651.023-1.42.023-1.428.008-.008.008-.023-.008-.039-.008-.016-.023-.031-.039-.031-.581-.055-.996.063-1.216.376-.29.408-.188.989-.141 1.177-.008 0-.016-.016-.032-.016a1.43 1.43 0 0 0-1.459.29s-.008.024-.008.04c.361.823 1.271 1.333 1.475 1.443-.094 1.333 1.436 2.494 1.452 2.494.016.016.031.016.039 0 .023 0 .016-.016.008-.039-.212-.377-.337-1.153-.071-1.562.181-.282.495-.345.949-.195.4.133.706.345.902.635.337.486.267 1.036.267 1.052-.313 1.851-1.969 1.537-2.659 1.286-.235-.078-.384-.157-.384-.157-1.177-.58-1.985-1.333-2.393-2.251-.792-1.733.11-3.412.125-3.428a797.696 797.696 0 0 0 8.143-14.639 1720.468 1720.468 0 0 0 8.15 19.267c.008.023.91 2.212.125 3.499-.416.674-1.216.98-2.393.894-.008 0-.157-.016-.384-.063-.7-.154-2.348-.765-2.669-2.805zm-2.832.079c1.177 2.98 3.436 4.204 4.691 4.644-1.255-.149-3.514-.094-4.691 2.196-1.177-2.965-3.428-4.283-4.691-4.855 1.263.274 3.514.336 4.691-1.985zm-2.832 6.84s.071.612-.267.887c-.196.165-.502.181-.902.055-.455-.148-.769-.424-.949-.823-.259-.589-.141-1.278.071-1.515.008-.016.008-.031-.008-.047-.008-.016-.023-.031-.039-.031-.016.008-1.545.11-1.452 1.506-.204-.031-1.114-.172-1.475.377 0 .016 0 .031.008.055.023.039.612 1.028 1.459 1.326.016 0 .024.008.032.016-.047.156-.149.667.141 1.271.22.471.635.887 1.216 1.216.016.008.031.008.039-.008.016 0 .016-.016.008-.031 0-.008-.36-1.02-.023-1.443.157-.204.447-.251.863-.141 0 0 .094.031.251.086.564.181 1.914.525 2.439-.086.055 1.584.118 3.177.173 4.761 0 0 .063.354-.181.589-.251.251-.729.298-1.428.125 0 0-.063-.016-.157-.047-.275-.078-.824-.306-1.396-.745-.016-.016-.023-.016-.039-.008-.008 0-.016.016-.016.031.008.016.393 2.558 3.075 3.373.142.04.298.079.455.11-.321.109-.949.432-.949 1.412 0 .016-.039 1.819 1.859 3.883.016.023.039.023.047.016 1.898-.996 1.859-2.816 1.859-2.832 0-.988-.628-1.663-.941-1.945.157.055.306.102.455.142 2.683.706 3.067-1.616 3.067-1.632.008-.016 0-.031-.016-.047-.008-.008-.023-.016-.039-.008a3.24 3.24 0 0 1-1.389-.04 15.315 15.315 0 0 0-.157-.047c-.698-.22-1.177-.533-1.428-.926-.243-.376-.181-.69-.181-.706.055-1.553.118-3.099.173-4.651.525.902 1.867 1.325 2.439 1.467.149.031.243.055.243.055.416.126.706.338.871.636.337.611-.023 1.412-.032 1.428 0 0 0 .031.008.031a.142.142 0 0 0 .023.031c.604 0 1.012-.188 1.239-.525.282-.439.188-1.012.141-1.192.008 0 .016.008.023.008.847.181 1.444-.471 1.467-.494a.049.049 0 0 0 0-.047c-.353-.761-1.271-1.146-1.467-1.216.094-1.35-1.443-2.322-1.451-2.338-.016 0-.031-.008-.047 0a.049.049 0 0 0 0 .047c.204.361.33 1.114.071 1.553-.181.299-.502.4-.949.291-.4-.103-.706-.291-.91-.573-.345-.471-.267-1.02-.267-1.02.321-1.875 1.969-1.687 2.667-1.537.228.055.376.109.384.109 1.177.432 1.977 1.067 2.393 1.906.792 1.593-.118 3.437-.125 3.444a943.74 943.74 0 0 1-8.15 15.336 1751.714 1751.714 0 0 1-8.143-19.957c-.016-.023-.918-2.385-.125-3.521.408-.612 1.216-.785 2.393-.534 0 0 .149.031.384.11.693.232 2.348.985 2.662 3.024zM120.511 171.838c3.969 1.239 5.06 3.013 5.06 3.013s6.08-.58 8.99-1.255a15.212 15.212 0 0 1 3.863-.361c.769-1.13 1.443-2.118 2.071-2.91-.533-.235-1.051-.321-1.616-.212-1.71.502-32.104 7.013-39.415-23.675 0 0-3.742-2.346-1.31 8.52 0 0-2.267-2.981-3.671-9.665 0 0-2.181-3.651-2.393 1.02-.212 4.691 4.354 12.23 4.354 12.215 0 .008-3.09-1.326-5.828-6.111 0 0-1.334-1.726-2.738-.651-1.412 1.075.274 3.044.274 3.044 0 .023 5.978 8.229 7.664 8.763 0 0-4.008-1.224-7.099-4.495 0 0-1.122-1.562-2.456-.165 0 0-.988.737 2.526 3.734 3.515 2.988 7.445 5.483 7.445 5.476 0 0-.047 1.286-4.542-.659-4.495-1.977-.024 2.589-.024 2.589s4.032 2.69 7.547 3.718c0 0-.4.597-2.887.848-2.479.251 2.322 1.521 2.322 1.506 0 .008 3.797.471 4.236.361 0 0-1.451 1.027-3.93 1.396 0-.017.376 1.271 6.628.635 0 0-2.205 1.06-3.208 1.357-1.012.298-.329.761.604.644.941-.126 4.754-.785 5.97-.118 0 0-2.291 2.024-2.997 2.095 0 0 6.487 3.702 14.826.36 0 .008-6.205.941-10.315-1.945.125-.644.259-1.286.384-1.93 0 0-1.757.84-2.738-.149.267-.384.542-.769.808-1.152 0 0-2.918-.188-3.06-1.036 0 0 1.161-.8-.416-1.192-1.585-.392-2.746-.722-2.746-.722.431-.243.871-.486 1.302-.729a316.677 316.677 0 0 1-5.374-2.408c.69-.298 1.38-.596 2.071-.91 0 .016-3.232-1.475-2.738-3.482 0 0 1.161-.408 2.738.109 0 0-2.04-1.898-2.142-4.268 0 0 3.475-1.93 8.111 1.758 4.644 3.655 4.009 4.707 4.009 4.715s5.878 1.101 9.84 2.324zM157.188 175.353s.314 1.459-1.898 2.346c0 0 1.852 1.247-2.463 3.538 0 0-2.494 1.364-9.131 3.373-6.637 2.008-9.418 4.565-9.873 7.201 0 0 .698 1.051 5.087-3.577 0 0-.376 2.573.424 2.4.815-.173 3.169-3.727 3.169-3.727s-.188 2.723.973 2.44 3.232-3.68 3.232-3.68-.173 2.581.737 2.314c.926-.282 2.683-3.303 2.683-3.303s.518 2.056 1.616 1.514c1.082-.533 2.134-2.745 2.134-2.745s.988 1.302 2.07.769c1.099-.533 2.322-3.169 2.322-3.169s.628 1.506 1.475 1.051c.848-.455 1.867-3.271 1.867-3.271s1.992 1.153 3.326.118c1.333-1.035 1.066-3.702 1.066-3.702s1.93 1.396 4.252.016c2.307-1.381 1.647-3.311 1.647-3.311.002-.031-8.988.471-14.715 3.405zM143.727 97.575c0 1.106-.91 2.271-2.008 2.608-1.114.333-2.009-.291-2.009-1.396s1.946-8.88 2.009-8.896c.047-.016 2.008 6.578 2.008 7.684zM143.727 155.75c0-1.106-.91-1.733-2.008-1.404-1.114.338-2.009 1.506-2.009 2.62 0 1.099 1.946 7.703 2.009 7.688.047-.017 2.008-7.798 2.008-8.904zM138 99.465c.22 1.028-.486 2.291-1.569 2.836-1.079.537-2.138.149-2.349-.871-.22-1.016.282-8.594.345-8.629.039-.019 3.369 5.648 3.573 6.664zM149.36 153.106c-.22-1.035-1.271-1.412-2.354-.879-1.083.55-1.789 1.82-1.585 2.84.22 1.02 3.53 6.691 3.593 6.652.031-.015.566-7.601.346-8.613zM132.435 102.419c.423.902-.063 2.216-1.083 2.941-1.02.729-2.197.588-2.62-.306-.424-.895-1.373-7.998-1.318-8.037.039-.035 4.597 4.511 5.021 5.402zM154.694 149.482c-.424-.895-1.585-1.036-2.604-.314-1.035.738-1.521 2.048-1.082 2.935.407.894 4.957 5.452 5.021 5.412.03-.024-.911-7.139-1.335-8.033zM127.226 106.306c.612.737.361 2.06-.557 2.938s-2.166.996-2.777.255c-.612-.745-2.989-7.123-2.941-7.17.038-.028 5.663 3.247 6.275 3.977zM159.542 145.034c-.611-.745-1.852-.636-2.776.243-.926.895-1.161 2.204-.55 2.949.612.73 6.213 4.017 6.276 3.978.031-.039-2.338-6.425-2.95-7.17zM122.566 110.961c.785.561.785 1.832 0 2.84-.785 1-2.047 1.357-2.832.8-.792-.561-4.495-6.001-4.448-6.056.031-.027 6.495 1.879 7.28 2.416zM163.7 139.932c-.785-.565-2.04-.208-2.824.8s-.784 2.271 0 2.835c.784.549 7.232 2.463 7.279 2.424.015-.047-3.671-5.499-4.455-6.059zM118.644 116.229c.926.357 1.169 1.526.549 2.624-.612 1.09-1.851 1.675-2.777 1.314-.918-.349-5.813-4.671-5.782-4.734.024-.028 7.092.451 8.01.796zM167.026 134.358c-.926-.361-2.166.231-2.793 1.322-.612 1.09-.361 2.267.564 2.624.91.337 7.955.835 8.002.796.016-.051-4.864-4.385-5.773-4.742zM115.608 121.901c1.02.149 1.506 1.184 1.083 2.318-.424 1.138-1.592 1.941-2.612 1.789-1.02-.133-6.919-3.173-6.896-3.251.015-.017 7.405-.978 8.425-.856zM169.363 128.518c-1.02-.153-2.196.655-2.62 1.789-.423 1.137.063 2.181 1.083 2.318 1.02.122 8.394-.819 8.425-.855.015-.06-5.868-3.119-6.888-3.252zM113.576 127.788c1.083-.075 1.789.792 1.577 1.934-.22 1.142-1.271 2.13-2.353 2.2-1.091.09-7.759-1.549-7.743-1.635.008-.024 7.437-2.405 8.519-2.499zM170.634 122.611c-1.083.063-2.149 1.055-2.354 2.192-.22 1.145.486 2.012 1.568 1.938 1.099-.098 8.504-2.459 8.52-2.502.016-.059-6.652-1.726-7.734-1.628zM112.627 133.671c1.106-.29 2.008.369 2.008 1.475s-.902 2.243-2.008 2.534c-1.098.318-8.292.153-8.292.075 0-.024 7.186-3.766 8.292-4.084zM170.806 116.845c-1.113.294-2.008 1.436-2.008 2.534 0 1.114.895 1.769 2.008 1.479 1.099-.318 8.284-4.044 8.284-4.075 0-.075-7.185-.252-8.284.062zM112.8 139.343c1.082-.502 2.133-.079 2.353.945.212 1.024-.486 2.275-1.577 2.777-1.083.533-8.511 1.891-8.52 1.804-.007-.016 6.653-5.004 7.744-5.526zM169.866 111.463c-1.099.502-1.805 1.753-1.585 2.773.22 1.028 1.271 1.448 2.354.953 1.082-.529 7.75-5.491 7.734-5.534 0-.07-7.421 1.275-8.503 1.808z" fill="#ffc130" opacity="1" data-original="#ffc130"></path><path d="M114.078 144.571c1.02-.69 2.188-.518 2.612.377.424.91-.063 2.212-1.083 2.918-1.02.722-8.402 3.577-8.425 3.499-.015-.016 5.877-6.073 6.896-6.794zM167.826 106.667c-1.02.702-1.506 2.004-1.083 2.907.424.914 1.601 1.07 2.62.376 1.021-.714 6.903-6.754 6.888-6.79-.016-.058-7.406 2.781-8.425 3.507zM116.416 149.152c.926-.862 2.165-.957 2.777-.203.62.737.369 2.055-.549 2.926-.918.887-7.97 5.138-8.009 5.091-.024-.032 4.863-6.935 5.781-7.814zM164.797 102.65c-.926.875-1.177 2.192-.564 2.938.611.749 1.867.647 2.777-.216.925-.875 5.82-7.77 5.773-7.797-.015-.055-7.06 4.189-7.986 5.075zM119.734 152.902c.776-1.004 2.047-1.365 2.832-.8.785.557.785 1.819 0 2.823-.785 1.028-7.241 6.527-7.28 6.48-.031-.023 3.664-7.499 4.448-8.503zM160.875 99.595c-.784 1.008-.784 2.279 0 2.832.769.564 2.039.204 2.824-.792.784-1.008 4.486-8.476 4.455-8.5-.03-.039-6.51 5.448-7.279 6.46zM123.892 155.64c.612-1.091 1.859-1.703 2.777-1.357.917.345 1.168 1.514.557 2.62-.62 1.106-6.229 7.609-6.275 7.585-.033-.008 2.329-7.75 2.941-8.848zM156.215 97.634c-.611 1.094-.376 2.271.55 2.612.925.345 2.165-.259 2.776-1.354.612-1.102 2.997-8.829 2.95-8.849-.047-.019-5.663 6.484-6.276 7.591zM128.732 157.263c.423-1.145 1.6-1.977 2.62-1.851 1.02.109 1.506 1.145 1.083 2.29-.424 1.146-4.966 8.386-5.021 8.378-.039.001.894-7.671 1.318-8.817zM150.991 96.83c-.407 1.153.079 2.177 1.099 2.294 1.02.122 2.181-.71 2.604-1.855.424-1.145 1.381-8.805 1.334-8.813-.048-.016-4.613 7.224-5.037 8.374zM134.082 157.703c.211-1.146 1.263-2.165 2.349-2.274 1.083-.118 1.789.729 1.569 1.874-.204 1.153-3.518 8.825-3.573 8.825-.047-.001-.565-7.272-.345-8.425zM145.421 97.226c-.204 1.153.502 1.989 1.585 1.883 1.082-.114 2.134-1.138 2.354-2.283.22-1.149-.283-8.425-.346-8.425-.047.007-3.373 7.671-3.593 8.825zM165.614 120.253c0 13.171-10.7 26.867-23.895 30.907-13.199 4.048-23.898-3.655-23.898-16.881 0-13.175 10.7-26.871 23.898-30.911 13.195-4.044 23.895 3.659 23.895 16.885zM197.227 130.706c-1.334-.98-2.463.969-2.463.969-3.091 4.303-7.092 7.15-7.092 7.15 1.679-1.278 7.656-11.629 7.656-11.606 0-.004 1.679-2.522.282-3.138-1.412-.608-2.745 1.592-2.745 1.592-2.746 5.762-5.837 8.366-5.837 8.366 0-.012 4.565-9.339 4.362-13.924-.204-4.601-2.385-.11-2.385-.11-1.412 7.237-3.688 11.182-3.688 11.182 2.447-11.896-1.302-7.966-1.302-7.958-7.312 33.091-37.701 44.325-39.411 45.157-1.71.675-3.233 3.153-5.79 6.88-2.542 3.718-5.848 5.279-8.617 7.334-2.761 2.056-1.985 2.981-1.985 2.981-3.004 2.165-1.71 4.048-1.71 4.048.282-1.177 1.804-1.71 1.804-1.71-.376.58-.282.925-.282.925.792-.933 7.609-3.64 13.143-4.926 5.523-1.271 5.1-1.585 5.1-1.585-.486-.282-4.143.941-4.143.941-2.651.745-3.749.439-3.749.439-1.836 1.412-3.126.949-3.126.949.455-.667.914-1.326 1.369-1.984-.361.031-.734.07-1.102.109.631-.675 1.259-1.356 1.902-2.031-1.746.925-3.487 1.843-5.229 2.769 0 0 .259.69-.542 1.459-.792.77-1.538.346-1.538.346-.635.455-.871.188-.871.188.125-.25.643-.721 1.248-1.191-.016.055-.032.109-.032.156 0 .282.235.455.526.361.29-.079.533-.393.533-.675-.008-.22-.133-.361-.313-.393.808-.596 1.561-1.105 1.561-1.105 0 .008 5.864-4.684 7.841-7.382 1.961-2.699 5.414-4.942 8.316-6.025 2.918-1.098 9.006-4.07 9.006-4.063 0 0 1.082-2.433 5.052-5.899 3.969-3.499 9.837-7.656 9.837-7.648s-.628-.776 4-6.723c4.629-5.958 8.111-5.495 8.111-5.495-.109 2.412-2.148 5.212-2.148 5.212 1.584-1.232 2.745-1.303 2.745-1.303.486 1.789-2.745 4.676-2.745 4.676h2.086a431 431 0 0 0-5.381 4.832c.424.031.862.078 1.302.117 0 0-1.161.863-2.745 2.017-1.585 1.153-.424 1.396-.424 1.396-.142.909-3.06 2.541-3.06 2.541.282.251.549.502.815.753-.988 1.476-2.745 1.538-2.745 1.538.142.58.267 1.153.393 1.726-4.11 4.974-10.308 7.516-10.308 7.516 8.33-1.381 14.811-8.175 14.811-8.175-.69.267-2.997-.611-2.997-.611 1.224-1.303 5.036-2.479 5.978-2.777.941-.313 1.616-1.082.611-.926-1.02.157-3.216.157-3.216.157 6.26-2.322 6.637-3.655 6.637-3.671-2.495.706-3.938.368-3.938.368.439-.117 4.236-2.267 4.236-2.259 0-.008 4.801-3.256 2.322-2.487-2.479.777-2.887.377-2.887.377 3.514-2.573 7.546-6.77 7.546-6.77s4.472-6.154-.031-2.561c-4.487 3.635-4.534 2.443-4.534 2.427 0 0 3.938-4.114 7.437-8.288 3.516-4.158 2.543-4.547 2.543-4.555z" fill="#ffc130" opacity="1" data-original="#ffc130"></path></g></g></svg>
