<svg xmlns="http://www.w3.org/2000/svg" version="1.1" xmlns:xlink="http://www.w3.org/1999/xlink" width="512" height="512" x="0" y="0" viewBox="0 0 283.46 283.46" style="enable-background:new 0 0 512 512" xml:space="preserve" class=""><g><path fill="#cccbca" d="M280.63 235.086c-92.597-56.01-185.199 56.026-277.796 0V48.374c92.597 56.018 185.199-56.018 277.796 0z" opacity="1" data-original="#cccbca"></path><path fill="#ffffff" d="M278.387 110.786c-91.076-52.449-182.171 55.065-273.254 2.683V51.991c91.083 52.386 182.178-55.132 273.254-2.683z" opacity="1" data-original="#ffffff" class=""></path><path fill="#d93729" d="M278.387 231.478c-91.076-52.448-182.171 55.069-273.254 2.684v-61.486c91.083 52.386 182.178-55.128 273.254-2.683z" opacity="1" data-original="#d93729"></path><path fill="#2e4b9f" d="M278.403 170.008c-91.092-52.469-182.179 55.053-273.262 2.667v-59.199c91.083 52.375 182.17-55.139 273.262-2.675z" opacity="1" data-original="#2e4b9f"></path></g></svg>
